<svg width="84" height="15" viewBox="0 0 84 15" fill="none" xmlns="http://www.w3.org/2000/svg">
<path d="M0.68 9.64H3.38C3.43333 10.0933 3.64 10.5067 4 10.88C4.37333 11.24 4.86 11.5267 5.46 11.74C6.06 11.94 6.73333 12.04 7.48 12.04C8.16 12.04 8.72 11.9667 9.16 11.82C9.6 11.6733 9.92667 11.4667 10.14 11.2C10.3533 10.9333 10.46 10.6133 10.46 10.24C10.46 9.88 10.3267 9.60667 10.06 9.42C9.79333 9.22 9.37333 9.06 8.8 8.94C8.22667 8.80667 7.47333 8.67333 6.54 8.54C5.80667 8.43333 5.11333 8.28667 4.46 8.1C3.80667 7.9 3.22667 7.64667 2.72 7.34C2.22667 7.03333 1.83333 6.66 1.54 6.22C1.26 5.76667 1.12 5.23333 1.12 4.62C1.12 3.86 1.33333 3.19333 1.76 2.62C2.2 2.04667 2.84667 1.6 3.7 1.28C4.55333 0.959999 5.6 0.799999 6.84 0.799999C8.70667 0.799999 10.14 1.2 11.14 2C12.1533 2.78667 12.6467 3.87333 12.62 5.26H10.02C9.96667 4.47333 9.63333 3.90667 9.02 3.56C8.42 3.21333 7.66 3.04 6.74 3.04C5.88667 3.04 5.18 3.16667 4.62 3.42C4.07333 3.67333 3.8 4.10667 3.8 4.72C3.8 4.96 3.86667 5.17333 4 5.36C4.13333 5.53333 4.36 5.68667 4.68 5.82C5 5.95333 5.43333 6.08 5.98 6.2C6.52667 6.32 7.20667 6.44 8.02 6.56C8.78 6.66667 9.46667 6.81333 10.08 7C10.7067 7.17333 11.24 7.40667 11.68 7.7C12.1333 7.98 12.48 8.34 12.72 8.78C12.96 9.22 13.08 9.76 13.08 10.4C13.08 11.1867 12.8733 11.8733 12.46 12.46C12.06 13.0333 11.4333 13.48 10.58 13.8C9.74 14.12 8.64667 14.28 7.3 14.28C6.34 14.28 5.49333 14.18 4.76 13.98C4.02667 13.7667 3.39333 13.4867 2.86 13.14C2.32667 12.7933 1.89333 12.4133 1.56 12C1.22667 11.5867 0.986667 11.1733 0.84 10.76C0.706667 10.3467 0.653333 9.97333 0.68 9.64ZM26.5867 14H23.9867V4.06H26.5867V14ZM24.1267 9.22L24.1467 9.9C24.1201 10.0867 24.0534 10.36 23.9467 10.72C23.8401 11.0667 23.6734 11.44 23.4467 11.84C23.2334 12.24 22.9534 12.6267 22.6067 13C22.2601 13.36 21.8334 13.66 21.3267 13.9C20.8201 14.1267 20.2201 14.24 19.5267 14.24C18.9801 14.24 18.4401 14.1733 17.9067 14.04C17.3867 13.9067 16.9134 13.6867 16.4867 13.38C16.0601 13.06 15.7201 12.6333 15.4667 12.1C15.2134 11.5667 15.0867 10.8933 15.0867 10.08V4.06H17.6867V9.64C17.6867 10.28 17.7867 10.7867 17.9867 11.16C18.2001 11.52 18.5067 11.7733 18.9067 11.92C19.3067 12.0667 19.7801 12.14 20.3267 12.14C21.0467 12.14 21.6667 11.9867 22.1867 11.68C22.7067 11.36 23.1267 10.9733 23.4467 10.52C23.7801 10.0667 24.0067 9.63333 24.1267 9.22ZM28.9539 4.06H31.5539V14H28.9539V4.06ZM35.3739 6.2C34.6272 6.2 33.9806 6.34667 33.4339 6.64C32.8872 6.92 32.4472 7.26667 32.1139 7.68C31.7806 8.09333 31.5472 8.49333 31.4139 8.88L31.3939 7.78C31.4072 7.62 31.4606 7.38667 31.5539 7.08C31.6472 6.76 31.7872 6.42 31.9739 6.06C32.1606 5.68667 32.4072 5.33333 32.7139 5C33.0206 4.65333 33.3939 4.37333 33.8339 4.16C34.2739 3.94667 34.7872 3.84 35.3739 3.84V6.2ZM36.3398 4.24H44.3398V6.22H36.3398V4.24ZM42.4198 0.0599995H44.4798V2.16H43.0398C42.6532 2.14667 42.3198 2.18667 42.0398 2.28C41.7598 2.37333 41.5465 2.54667 41.3998 2.8C41.2532 3.04 41.1798 3.38667 41.1798 3.84V14H38.5798V3.52C38.5798 2.72 38.7265 2.06667 39.0198 1.56C39.3132 1.04 39.7465 0.66 40.3198 0.42C40.8932 0.18 41.5932 0.0599995 42.4198 0.0599995Z" fill="black"/>
<path d="M76.0621 1.5345C76.3843 0.663886 77.6157 0.663887 77.9379 1.53451L79.0012 4.40803C79.1024 4.68175 79.3182 4.89756 79.592 4.99885L82.4655 6.06215C83.3361 6.38431 83.3361 7.61569 82.4655 7.93785L79.592 9.00115C79.3182 9.10244 79.1024 9.31825 79.0012 9.59197L77.9379 12.4655C77.6157 13.3361 76.3843 13.3361 76.0621 12.4655L74.9988 9.59197C74.8976 9.31825 74.6818 9.10244 74.408 9.00115L71.5345 7.93785C70.6639 7.61569 70.6639 6.38431 71.5345 6.06215L74.408 4.99885C74.6818 4.89756 74.8976 4.68175 74.9988 4.40803L76.0621 1.5345Z" fill="black"/>
</svg>
