<svg width="1280" height="56" viewBox="0 0 1280 56" fill="none" xmlns="http://www.w3.org/2000/svg">
<g clip-path="url(#clip0_3185_638)">
<rect width="2239" height="56" transform="translate(-133)" fill="url(#paint0_linear_3185_638)"/>
<path d="M-0.937851 22.5345C-0.615694 21.6639 0.615694 21.6639 0.937852 22.5345L2.00115 25.408C2.10244 25.6818 2.31825 25.8976 2.59197 25.9988L5.4655 27.0621C6.33611 27.3843 6.33611 28.6157 5.4655 28.9379L2.59197 30.0012C2.31825 30.1024 2.10244 30.3182 2.00115 30.592L0.937851 33.4655C0.615693 34.3361 -0.615694 34.3361 -0.937852 33.4655L-2.00115 30.592C-2.10244 30.3182 -2.31825 30.1024 -2.59197 30.0012L-5.4655 28.9379C-6.33611 28.6157 -6.33611 27.3843 -5.46549 27.0621L-2.59197 25.9988C-2.31825 25.8976 -2.10244 25.6818 -2.00115 25.408L-0.937851 22.5345Z" fill="black"/>
<path d="M32.68 30.64H35.38C35.4333 31.0933 35.64 31.5067 36 31.88C36.3733 32.24 36.86 32.5267 37.46 32.74C38.06 32.94 38.7333 33.04 39.48 33.04C40.16 33.04 40.72 32.9667 41.16 32.82C41.6 32.6733 41.9267 32.4667 42.14 32.2C42.3533 31.9333 42.46 31.6133 42.46 31.24C42.46 30.88 42.3267 30.6067 42.06 30.42C41.7933 30.22 41.3733 30.06 40.8 29.94C40.2267 29.8067 39.4733 29.6733 38.54 29.54C37.8067 29.4333 37.1133 29.2867 36.46 29.1C35.8067 28.9 35.2267 28.6467 34.72 28.34C34.2267 28.0333 33.8333 27.66 33.54 27.22C33.26 26.7667 33.12 26.2333 33.12 25.62C33.12 24.86 33.3333 24.1933 33.76 23.62C34.2 23.0467 34.8467 22.6 35.7 22.28C36.5533 21.96 37.6 21.8 38.84 21.8C40.7067 21.8 42.14 22.2 43.14 23C44.1533 23.7867 44.6467 24.8733 44.62 26.26H42.02C41.9667 25.4733 41.6333 24.9067 41.02 24.56C40.42 24.2133 39.66 24.04 38.74 24.04C37.8867 24.04 37.18 24.1667 36.62 24.42C36.0733 24.6733 35.8 25.1067 35.8 25.72C35.8 25.96 35.8667 26.1733 36 26.36C36.1333 26.5333 36.36 26.6867 36.68 26.82C37 26.9533 37.4333 27.08 37.98 27.2C38.5267 27.32 39.2067 27.44 40.02 27.56C40.78 27.6667 41.4667 27.8133 42.08 28C42.7067 28.1733 43.24 28.4067 43.68 28.7C44.1333 28.98 44.48 29.34 44.72 29.78C44.96 30.22 45.08 30.76 45.08 31.4C45.08 32.1867 44.8733 32.8733 44.46 33.46C44.06 34.0333 43.4333 34.48 42.58 34.8C41.74 35.12 40.6467 35.28 39.3 35.28C38.34 35.28 37.4933 35.18 36.76 34.98C36.0267 34.7667 35.3933 34.4867 34.86 34.14C34.3267 33.7933 33.8933 33.4133 33.56 33C33.2267 32.5867 32.9867 32.1733 32.84 31.76C32.7067 31.3467 32.6533 30.9733 32.68 30.64ZM58.5867 35H55.9867V25.06H58.5867V35ZM56.1267 30.22L56.1467 30.9C56.1201 31.0867 56.0534 31.36 55.9467 31.72C55.8401 32.0667 55.6734 32.44 55.4467 32.84C55.2334 33.24 54.9534 33.6267 54.6067 34C54.2601 34.36 53.8334 34.66 53.3267 34.9C52.8201 35.1267 52.2201 35.24 51.5267 35.24C50.9801 35.24 50.4401 35.1733 49.9067 35.04C49.3867 34.9067 48.9134 34.6867 48.4867 34.38C48.0601 34.06 47.7201 33.6333 47.4667 33.1C47.2134 32.5667 47.0867 31.8933 47.0867 31.08V25.06H49.6867V30.64C49.6867 31.28 49.7867 31.7867 49.9867 32.16C50.2001 32.52 50.5067 32.7733 50.9067 32.92C51.3067 33.0667 51.7801 33.14 52.3267 33.14C53.0467 33.14 53.6667 32.9867 54.1867 32.68C54.7067 32.36 55.1267 31.9733 55.4467 31.52C55.7801 31.0667 56.0067 30.6333 56.1267 30.22ZM60.9539 25.06H63.5539V35H60.9539V25.06ZM67.3739 27.2C66.6272 27.2 65.9806 27.3467 65.4339 27.64C64.8872 27.92 64.4472 28.2667 64.1139 28.68C63.7806 29.0933 63.5472 29.4933 63.4139 29.88L63.3939 28.78C63.4072 28.62 63.4606 28.3867 63.5539 28.08C63.6472 27.76 63.7872 27.42 63.9739 27.06C64.1606 26.6867 64.4072 26.3333 64.7139 26C65.0206 25.6533 65.3939 25.3733 65.8339 25.16C66.2739 24.9467 66.7872 24.84 67.3739 24.84V27.2ZM68.3398 25.24H76.3398V27.22H68.3398V25.24ZM74.4198 21.06H76.4798V23.16H75.0398C74.6532 23.1467 74.3198 23.1867 74.0398 23.28C73.7598 23.3733 73.5465 23.5467 73.3998 23.8C73.2532 24.04 73.1798 24.3867 73.1798 24.84V35H70.5798V24.52C70.5798 23.72 70.7265 23.0667 71.0198 22.56C71.3132 22.04 71.7465 21.66 72.3198 21.42C72.8932 21.18 73.5932 21.06 74.4198 21.06Z" fill="black"/>
<path d="M108.062 22.5345C108.384 21.6639 109.616 21.6639 109.938 22.5345L111.001 25.408C111.102 25.6818 111.318 25.8976 111.592 25.9988L114.465 27.0621C115.336 27.3843 115.336 28.6157 114.465 28.9379L111.592 30.0012C111.318 30.1024 111.102 30.3182 111.001 30.592L109.938 33.4655C109.616 34.3361 108.384 34.3361 108.062 33.4655L106.999 30.592C106.898 30.3182 106.682 30.1024 106.408 30.0012L103.535 28.9379C102.664 28.6157 102.664 27.3843 103.535 27.0621L106.408 25.9988C106.682 25.8976 106.898 25.6818 106.999 25.408L108.062 22.5345Z" fill="black"/>
<path d="M141.68 30.64H144.38C144.433 31.0933 144.64 31.5067 145 31.88C145.373 32.24 145.86 32.5267 146.46 32.74C147.06 32.94 147.733 33.04 148.48 33.04C149.16 33.04 149.72 32.9667 150.16 32.82C150.6 32.6733 150.927 32.4667 151.14 32.2C151.353 31.9333 151.46 31.6133 151.46 31.24C151.46 30.88 151.327 30.6067 151.06 30.42C150.793 30.22 150.373 30.06 149.8 29.94C149.227 29.8067 148.473 29.6733 147.54 29.54C146.807 29.4333 146.113 29.2867 145.46 29.1C144.807 28.9 144.227 28.6467 143.72 28.34C143.227 28.0333 142.833 27.66 142.54 27.22C142.26 26.7667 142.12 26.2333 142.12 25.62C142.12 24.86 142.333 24.1933 142.76 23.62C143.2 23.0467 143.847 22.6 144.7 22.28C145.553 21.96 146.6 21.8 147.84 21.8C149.707 21.8 151.14 22.2 152.14 23C153.153 23.7867 153.647 24.8733 153.62 26.26H151.02C150.967 25.4733 150.633 24.9067 150.02 24.56C149.42 24.2133 148.66 24.04 147.74 24.04C146.887 24.04 146.18 24.1667 145.62 24.42C145.073 24.6733 144.8 25.1067 144.8 25.72C144.8 25.96 144.867 26.1733 145 26.36C145.133 26.5333 145.36 26.6867 145.68 26.82C146 26.9533 146.433 27.08 146.98 27.2C147.527 27.32 148.207 27.44 149.02 27.56C149.78 27.6667 150.467 27.8133 151.08 28C151.707 28.1733 152.24 28.4067 152.68 28.7C153.133 28.98 153.48 29.34 153.72 29.78C153.96 30.22 154.08 30.76 154.08 31.4C154.08 32.1867 153.873 32.8733 153.46 33.46C153.06 34.0333 152.433 34.48 151.58 34.8C150.74 35.12 149.647 35.28 148.3 35.28C147.34 35.28 146.493 35.18 145.76 34.98C145.027 34.7667 144.393 34.4867 143.86 34.14C143.327 33.7933 142.893 33.4133 142.56 33C142.227 32.5867 141.987 32.1733 141.84 31.76C141.707 31.3467 141.653 30.9733 141.68 30.64ZM167.587 35H164.987V25.06H167.587V35ZM165.127 30.22L165.147 30.9C165.12 31.0867 165.053 31.36 164.947 31.72C164.84 32.0667 164.673 32.44 164.447 32.84C164.233 33.24 163.953 33.6267 163.607 34C163.26 34.36 162.833 34.66 162.327 34.9C161.82 35.1267 161.22 35.24 160.527 35.24C159.98 35.24 159.44 35.1733 158.907 35.04C158.387 34.9067 157.913 34.6867 157.487 34.38C157.06 34.06 156.72 33.6333 156.467 33.1C156.213 32.5667 156.087 31.8933 156.087 31.08V25.06H158.687V30.64C158.687 31.28 158.787 31.7867 158.987 32.16C159.2 32.52 159.507 32.7733 159.907 32.92C160.307 33.0667 160.78 33.14 161.327 33.14C162.047 33.14 162.667 32.9867 163.187 32.68C163.707 32.36 164.127 31.9733 164.447 31.52C164.78 31.0667 165.007 30.6333 165.127 30.22ZM169.954 25.06H172.554V35H169.954V25.06ZM176.374 27.2C175.627 27.2 174.981 27.3467 174.434 27.64C173.887 27.92 173.447 28.2667 173.114 28.68C172.781 29.0933 172.547 29.4933 172.414 29.88L172.394 28.78C172.407 28.62 172.461 28.3867 172.554 28.08C172.647 27.76 172.787 27.42 172.974 27.06C173.161 26.6867 173.407 26.3333 173.714 26C174.021 25.6533 174.394 25.3733 174.834 25.16C175.274 24.9467 175.787 24.84 176.374 24.84V27.2ZM177.34 25.24H185.34V27.22H177.34V25.24ZM183.42 21.06H185.48V23.16H184.04C183.653 23.1467 183.32 23.1867 183.04 23.28C182.76 23.3733 182.547 23.5467 182.4 23.8C182.253 24.04 182.18 24.3867 182.18 24.84V35H179.58V24.52C179.58 23.72 179.727 23.0667 180.02 22.56C180.313 22.04 180.747 21.66 181.32 21.42C181.893 21.18 182.593 21.06 183.42 21.06Z" fill="black"/>
<path d="M217.062 22.5345C217.384 21.6639 218.616 21.6639 218.938 22.5345L220.001 25.408C220.102 25.6818 220.318 25.8976 220.592 25.9988L223.465 27.0621C224.336 27.3843 224.336 28.6157 223.465 28.9379L220.592 30.0012C220.318 30.1024 220.102 30.3182 220.001 30.592L218.938 33.4655C218.616 34.3361 217.384 34.3361 217.062 33.4655L215.999 30.592C215.898 30.3182 215.682 30.1024 215.408 30.0012L212.535 28.9379C211.664 28.6157 211.664 27.3843 212.535 27.0621L215.408 25.9988C215.682 25.8976 215.898 25.6818 215.999 25.408L217.062 22.5345Z" fill="black"/>
<path d="M250.68 30.64H253.38C253.433 31.0933 253.64 31.5067 254 31.88C254.373 32.24 254.86 32.5267 255.46 32.74C256.06 32.94 256.733 33.04 257.48 33.04C258.16 33.04 258.72 32.9667 259.16 32.82C259.6 32.6733 259.927 32.4667 260.14 32.2C260.353 31.9333 260.46 31.6133 260.46 31.24C260.46 30.88 260.327 30.6067 260.06 30.42C259.793 30.22 259.373 30.06 258.8 29.94C258.227 29.8067 257.473 29.6733 256.54 29.54C255.807 29.4333 255.113 29.2867 254.46 29.1C253.807 28.9 253.227 28.6467 252.72 28.34C252.227 28.0333 251.833 27.66 251.54 27.22C251.26 26.7667 251.12 26.2333 251.12 25.62C251.12 24.86 251.333 24.1933 251.76 23.62C252.2 23.0467 252.847 22.6 253.7 22.28C254.553 21.96 255.6 21.8 256.84 21.8C258.707 21.8 260.14 22.2 261.14 23C262.153 23.7867 262.647 24.8733 262.62 26.26H260.02C259.967 25.4733 259.633 24.9067 259.02 24.56C258.42 24.2133 257.66 24.04 256.74 24.04C255.887 24.04 255.18 24.1667 254.62 24.42C254.073 24.6733 253.8 25.1067 253.8 25.72C253.8 25.96 253.867 26.1733 254 26.36C254.133 26.5333 254.36 26.6867 254.68 26.82C255 26.9533 255.433 27.08 255.98 27.2C256.527 27.32 257.207 27.44 258.02 27.56C258.78 27.6667 259.467 27.8133 260.08 28C260.707 28.1733 261.24 28.4067 261.68 28.7C262.133 28.98 262.48 29.34 262.72 29.78C262.96 30.22 263.08 30.76 263.08 31.4C263.08 32.1867 262.873 32.8733 262.46 33.46C262.06 34.0333 261.433 34.48 260.58 34.8C259.74 35.12 258.647 35.28 257.3 35.28C256.34 35.28 255.493 35.18 254.76 34.98C254.027 34.7667 253.393 34.4867 252.86 34.14C252.327 33.7933 251.893 33.4133 251.56 33C251.227 32.5867 250.987 32.1733 250.84 31.76C250.707 31.3467 250.653 30.9733 250.68 30.64ZM276.587 35H273.987V25.06H276.587V35ZM274.127 30.22L274.147 30.9C274.12 31.0867 274.053 31.36 273.947 31.72C273.84 32.0667 273.673 32.44 273.447 32.84C273.233 33.24 272.953 33.6267 272.607 34C272.26 34.36 271.833 34.66 271.327 34.9C270.82 35.1267 270.22 35.24 269.527 35.24C268.98 35.24 268.44 35.1733 267.907 35.04C267.387 34.9067 266.913 34.6867 266.487 34.38C266.06 34.06 265.72 33.6333 265.467 33.1C265.213 32.5667 265.087 31.8933 265.087 31.08V25.06H267.687V30.64C267.687 31.28 267.787 31.7867 267.987 32.16C268.2 32.52 268.507 32.7733 268.907 32.92C269.307 33.0667 269.78 33.14 270.327 33.14C271.047 33.14 271.667 32.9867 272.187 32.68C272.707 32.36 273.127 31.9733 273.447 31.52C273.78 31.0667 274.007 30.6333 274.127 30.22ZM278.954 25.06H281.554V35H278.954V25.06ZM285.374 27.2C284.627 27.2 283.981 27.3467 283.434 27.64C282.887 27.92 282.447 28.2667 282.114 28.68C281.781 29.0933 281.547 29.4933 281.414 29.88L281.394 28.78C281.407 28.62 281.461 28.3867 281.554 28.08C281.647 27.76 281.787 27.42 281.974 27.06C282.161 26.6867 282.407 26.3333 282.714 26C283.021 25.6533 283.394 25.3733 283.834 25.16C284.274 24.9467 284.787 24.84 285.374 24.84V27.2ZM286.34 25.24H294.34V27.22H286.34V25.24ZM292.42 21.06H294.48V23.16H293.04C292.653 23.1467 292.32 23.1867 292.04 23.28C291.76 23.3733 291.547 23.5467 291.4 23.8C291.253 24.04 291.18 24.3867 291.18 24.84V35H288.58V24.52C288.58 23.72 288.727 23.0667 289.02 22.56C289.313 22.04 289.747 21.66 290.32 21.42C290.893 21.18 291.593 21.06 292.42 21.06Z" fill="black"/>
<path d="M326.062 22.5345C326.384 21.6639 327.616 21.6639 327.938 22.5345L329.001 25.408C329.102 25.6818 329.318 25.8976 329.592 25.9988L332.465 27.0621C333.336 27.3843 333.336 28.6157 332.465 28.9379L329.592 30.0012C329.318 30.1024 329.102 30.3182 329.001 30.592L327.938 33.4655C327.616 34.3361 326.384 34.3361 326.062 33.4655L324.999 30.592C324.898 30.3182 324.682 30.1024 324.408 30.0012L321.535 28.9379C320.664 28.6157 320.664 27.3843 321.535 27.0621L324.408 25.9988C324.682 25.8976 324.898 25.6818 324.999 25.408L326.062 22.5345Z" fill="black"/>
<path d="M359.68 30.64H362.38C362.433 31.0933 362.64 31.5067 363 31.88C363.373 32.24 363.86 32.5267 364.46 32.74C365.06 32.94 365.733 33.04 366.48 33.04C367.16 33.04 367.72 32.9667 368.16 32.82C368.6 32.6733 368.927 32.4667 369.14 32.2C369.353 31.9333 369.46 31.6133 369.46 31.24C369.46 30.88 369.327 30.6067 369.06 30.42C368.793 30.22 368.373 30.06 367.8 29.94C367.227 29.8067 366.473 29.6733 365.54 29.54C364.807 29.4333 364.113 29.2867 363.46 29.1C362.807 28.9 362.227 28.6467 361.72 28.34C361.227 28.0333 360.833 27.66 360.54 27.22C360.26 26.7667 360.12 26.2333 360.12 25.62C360.12 24.86 360.333 24.1933 360.76 23.62C361.2 23.0467 361.847 22.6 362.7 22.28C363.553 21.96 364.6 21.8 365.84 21.8C367.707 21.8 369.14 22.2 370.14 23C371.153 23.7867 371.647 24.8733 371.62 26.26H369.02C368.967 25.4733 368.633 24.9067 368.02 24.56C367.42 24.2133 366.66 24.04 365.74 24.04C364.887 24.04 364.18 24.1667 363.62 24.42C363.073 24.6733 362.8 25.1067 362.8 25.72C362.8 25.96 362.867 26.1733 363 26.36C363.133 26.5333 363.36 26.6867 363.68 26.82C364 26.9533 364.433 27.08 364.98 27.2C365.527 27.32 366.207 27.44 367.02 27.56C367.78 27.6667 368.467 27.8133 369.08 28C369.707 28.1733 370.24 28.4067 370.68 28.7C371.133 28.98 371.48 29.34 371.72 29.78C371.96 30.22 372.08 30.76 372.08 31.4C372.08 32.1867 371.873 32.8733 371.46 33.46C371.06 34.0333 370.433 34.48 369.58 34.8C368.74 35.12 367.647 35.28 366.3 35.28C365.34 35.28 364.493 35.18 363.76 34.98C363.027 34.7667 362.393 34.4867 361.86 34.14C361.327 33.7933 360.893 33.4133 360.56 33C360.227 32.5867 359.987 32.1733 359.84 31.76C359.707 31.3467 359.653 30.9733 359.68 30.64ZM385.587 35H382.987V25.06H385.587V35ZM383.127 30.22L383.147 30.9C383.12 31.0867 383.053 31.36 382.947 31.72C382.84 32.0667 382.673 32.44 382.447 32.84C382.233 33.24 381.953 33.6267 381.607 34C381.26 34.36 380.833 34.66 380.327 34.9C379.82 35.1267 379.22 35.24 378.527 35.24C377.98 35.24 377.44 35.1733 376.907 35.04C376.387 34.9067 375.913 34.6867 375.487 34.38C375.06 34.06 374.72 33.6333 374.467 33.1C374.213 32.5667 374.087 31.8933 374.087 31.08V25.06H376.687V30.64C376.687 31.28 376.787 31.7867 376.987 32.16C377.2 32.52 377.507 32.7733 377.907 32.92C378.307 33.0667 378.78 33.14 379.327 33.14C380.047 33.14 380.667 32.9867 381.187 32.68C381.707 32.36 382.127 31.9733 382.447 31.52C382.78 31.0667 383.007 30.6333 383.127 30.22ZM387.954 25.06H390.554V35H387.954V25.06ZM394.374 27.2C393.627 27.2 392.981 27.3467 392.434 27.64C391.887 27.92 391.447 28.2667 391.114 28.68C390.781 29.0933 390.547 29.4933 390.414 29.88L390.394 28.78C390.407 28.62 390.461 28.3867 390.554 28.08C390.647 27.76 390.787 27.42 390.974 27.06C391.161 26.6867 391.407 26.3333 391.714 26C392.021 25.6533 392.394 25.3733 392.834 25.16C393.274 24.9467 393.787 24.84 394.374 24.84V27.2ZM395.34 25.24H403.34V27.22H395.34V25.24ZM401.42 21.06H403.48V23.16H402.04C401.653 23.1467 401.32 23.1867 401.04 23.28C400.76 23.3733 400.547 23.5467 400.4 23.8C400.253 24.04 400.18 24.3867 400.18 24.84V35H397.58V24.52C397.58 23.72 397.727 23.0667 398.02 22.56C398.313 22.04 398.747 21.66 399.32 21.42C399.893 21.18 400.593 21.06 401.42 21.06Z" fill="black"/>
<path d="M435.062 22.5345C435.384 21.6639 436.616 21.6639 436.938 22.5345L438.001 25.408C438.102 25.6818 438.318 25.8976 438.592 25.9988L441.465 27.0621C442.336 27.3843 442.336 28.6157 441.465 28.9379L438.592 30.0012C438.318 30.1024 438.102 30.3182 438.001 30.592L436.938 33.4655C436.616 34.3361 435.384 34.3361 435.062 33.4655L433.999 30.592C433.898 30.3182 433.682 30.1024 433.408 30.0012L430.535 28.9379C429.664 28.6157 429.664 27.3843 430.535 27.0621L433.408 25.9988C433.682 25.8976 433.898 25.6818 433.999 25.408L435.062 22.5345Z" fill="black"/>
<path d="M468.68 30.64H471.38C471.433 31.0933 471.64 31.5067 472 31.88C472.373 32.24 472.86 32.5267 473.46 32.74C474.06 32.94 474.733 33.04 475.48 33.04C476.16 33.04 476.72 32.9667 477.16 32.82C477.6 32.6733 477.927 32.4667 478.14 32.2C478.353 31.9333 478.46 31.6133 478.46 31.24C478.46 30.88 478.327 30.6067 478.06 30.42C477.793 30.22 477.373 30.06 476.8 29.94C476.227 29.8067 475.473 29.6733 474.54 29.54C473.807 29.4333 473.113 29.2867 472.46 29.1C471.807 28.9 471.227 28.6467 470.72 28.34C470.227 28.0333 469.833 27.66 469.54 27.22C469.26 26.7667 469.12 26.2333 469.12 25.62C469.12 24.86 469.333 24.1933 469.76 23.62C470.2 23.0467 470.847 22.6 471.7 22.28C472.553 21.96 473.6 21.8 474.84 21.8C476.707 21.8 478.14 22.2 479.14 23C480.153 23.7867 480.647 24.8733 480.62 26.26H478.02C477.967 25.4733 477.633 24.9067 477.02 24.56C476.42 24.2133 475.66 24.04 474.74 24.04C473.887 24.04 473.18 24.1667 472.62 24.42C472.073 24.6733 471.8 25.1067 471.8 25.72C471.8 25.96 471.867 26.1733 472 26.36C472.133 26.5333 472.36 26.6867 472.68 26.82C473 26.9533 473.433 27.08 473.98 27.2C474.527 27.32 475.207 27.44 476.02 27.56C476.78 27.6667 477.467 27.8133 478.08 28C478.707 28.1733 479.24 28.4067 479.68 28.7C480.133 28.98 480.48 29.34 480.72 29.78C480.96 30.22 481.08 30.76 481.08 31.4C481.08 32.1867 480.873 32.8733 480.46 33.46C480.06 34.0333 479.433 34.48 478.58 34.8C477.74 35.12 476.647 35.28 475.3 35.28C474.34 35.28 473.493 35.18 472.76 34.98C472.027 34.7667 471.393 34.4867 470.86 34.14C470.327 33.7933 469.893 33.4133 469.56 33C469.227 32.5867 468.987 32.1733 468.84 31.76C468.707 31.3467 468.653 30.9733 468.68 30.64ZM494.587 35H491.987V25.06H494.587V35ZM492.127 30.22L492.147 30.9C492.12 31.0867 492.053 31.36 491.947 31.72C491.84 32.0667 491.673 32.44 491.447 32.84C491.233 33.24 490.953 33.6267 490.607 34C490.26 34.36 489.833 34.66 489.327 34.9C488.82 35.1267 488.22 35.24 487.527 35.24C486.98 35.24 486.44 35.1733 485.907 35.04C485.387 34.9067 484.913 34.6867 484.487 34.38C484.06 34.06 483.72 33.6333 483.467 33.1C483.213 32.5667 483.087 31.8933 483.087 31.08V25.06H485.687V30.64C485.687 31.28 485.787 31.7867 485.987 32.16C486.2 32.52 486.507 32.7733 486.907 32.92C487.307 33.0667 487.78 33.14 488.327 33.14C489.047 33.14 489.667 32.9867 490.187 32.68C490.707 32.36 491.127 31.9733 491.447 31.52C491.78 31.0667 492.007 30.6333 492.127 30.22ZM496.954 25.06H499.554V35H496.954V25.06ZM503.374 27.2C502.627 27.2 501.981 27.3467 501.434 27.64C500.887 27.92 500.447 28.2667 500.114 28.68C499.781 29.0933 499.547 29.4933 499.414 29.88L499.394 28.78C499.407 28.62 499.461 28.3867 499.554 28.08C499.647 27.76 499.787 27.42 499.974 27.06C500.161 26.6867 500.407 26.3333 500.714 26C501.021 25.6533 501.394 25.3733 501.834 25.16C502.274 24.9467 502.787 24.84 503.374 24.84V27.2ZM504.34 25.24H512.34V27.22H504.34V25.24ZM510.42 21.06H512.48V23.16H511.04C510.653 23.1467 510.32 23.1867 510.04 23.28C509.76 23.3733 509.547 23.5467 509.4 23.8C509.253 24.04 509.18 24.3867 509.18 24.84V35H506.58V24.52C506.58 23.72 506.727 23.0667 507.02 22.56C507.313 22.04 507.747 21.66 508.32 21.42C508.893 21.18 509.593 21.06 510.42 21.06Z" fill="black"/>
<path d="M544.062 22.5345C544.384 21.6639 545.616 21.6639 545.938 22.5345L547.001 25.408C547.102 25.6818 547.318 25.8976 547.592 25.9988L550.465 27.0621C551.336 27.3843 551.336 28.6157 550.465 28.9379L547.592 30.0012C547.318 30.1024 547.102 30.3182 547.001 30.592L545.938 33.4655C545.616 34.3361 544.384 34.3361 544.062 33.4655L542.999 30.592C542.898 30.3182 542.682 30.1024 542.408 30.0012L539.535 28.9379C538.664 28.6157 538.664 27.3843 539.535 27.0621L542.408 25.9988C542.682 25.8976 542.898 25.6818 542.999 25.408L544.062 22.5345Z" fill="black"/>
<path d="M577.68 30.64H580.38C580.433 31.0933 580.64 31.5067 581 31.88C581.373 32.24 581.86 32.5267 582.46 32.74C583.06 32.94 583.733 33.04 584.48 33.04C585.16 33.04 585.72 32.9667 586.16 32.82C586.6 32.6733 586.927 32.4667 587.14 32.2C587.353 31.9333 587.46 31.6133 587.46 31.24C587.46 30.88 587.327 30.6067 587.06 30.42C586.793 30.22 586.373 30.06 585.8 29.94C585.227 29.8067 584.473 29.6733 583.54 29.54C582.807 29.4333 582.113 29.2867 581.46 29.1C580.807 28.9 580.227 28.6467 579.72 28.34C579.227 28.0333 578.833 27.66 578.54 27.22C578.26 26.7667 578.12 26.2333 578.12 25.62C578.12 24.86 578.333 24.1933 578.76 23.62C579.2 23.0467 579.847 22.6 580.7 22.28C581.553 21.96 582.6 21.8 583.84 21.8C585.707 21.8 587.14 22.2 588.14 23C589.153 23.7867 589.647 24.8733 589.62 26.26H587.02C586.967 25.4733 586.633 24.9067 586.02 24.56C585.42 24.2133 584.66 24.04 583.74 24.04C582.887 24.04 582.18 24.1667 581.62 24.42C581.073 24.6733 580.8 25.1067 580.8 25.72C580.8 25.96 580.867 26.1733 581 26.36C581.133 26.5333 581.36 26.6867 581.68 26.82C582 26.9533 582.433 27.08 582.98 27.2C583.527 27.32 584.207 27.44 585.02 27.56C585.78 27.6667 586.467 27.8133 587.08 28C587.707 28.1733 588.24 28.4067 588.68 28.7C589.133 28.98 589.48 29.34 589.72 29.78C589.96 30.22 590.08 30.76 590.08 31.4C590.08 32.1867 589.873 32.8733 589.46 33.46C589.06 34.0333 588.433 34.48 587.58 34.8C586.74 35.12 585.647 35.28 584.3 35.28C583.34 35.28 582.493 35.18 581.76 34.98C581.027 34.7667 580.393 34.4867 579.86 34.14C579.327 33.7933 578.893 33.4133 578.56 33C578.227 32.5867 577.987 32.1733 577.84 31.76C577.707 31.3467 577.653 30.9733 577.68 30.64ZM603.587 35H600.987V25.06H603.587V35ZM601.127 30.22L601.147 30.9C601.12 31.0867 601.053 31.36 600.947 31.72C600.84 32.0667 600.673 32.44 600.447 32.84C600.233 33.24 599.953 33.6267 599.607 34C599.26 34.36 598.833 34.66 598.327 34.9C597.82 35.1267 597.22 35.24 596.527 35.24C595.98 35.24 595.44 35.1733 594.907 35.04C594.387 34.9067 593.913 34.6867 593.487 34.38C593.06 34.06 592.72 33.6333 592.467 33.1C592.213 32.5667 592.087 31.8933 592.087 31.08V25.06H594.687V30.64C594.687 31.28 594.787 31.7867 594.987 32.16C595.2 32.52 595.507 32.7733 595.907 32.92C596.307 33.0667 596.78 33.14 597.327 33.14C598.047 33.14 598.667 32.9867 599.187 32.68C599.707 32.36 600.127 31.9733 600.447 31.52C600.78 31.0667 601.007 30.6333 601.127 30.22ZM605.954 25.06H608.554V35H605.954V25.06ZM612.374 27.2C611.627 27.2 610.981 27.3467 610.434 27.64C609.887 27.92 609.447 28.2667 609.114 28.68C608.781 29.0933 608.547 29.4933 608.414 29.88L608.394 28.78C608.407 28.62 608.461 28.3867 608.554 28.08C608.647 27.76 608.787 27.42 608.974 27.06C609.161 26.6867 609.407 26.3333 609.714 26C610.021 25.6533 610.394 25.3733 610.834 25.16C611.274 24.9467 611.787 24.84 612.374 24.84V27.2ZM613.34 25.24H621.34V27.22H613.34V25.24ZM619.42 21.06H621.48V23.16H620.04C619.653 23.1467 619.32 23.1867 619.04 23.28C618.76 23.3733 618.547 23.5467 618.4 23.8C618.253 24.04 618.18 24.3867 618.18 24.84V35H615.58V24.52C615.58 23.72 615.727 23.0667 616.02 22.56C616.313 22.04 616.747 21.66 617.32 21.42C617.893 21.18 618.593 21.06 619.42 21.06Z" fill="black"/>
<path d="M653.062 22.5345C653.384 21.6639 654.616 21.6639 654.938 22.5345L656.001 25.408C656.102 25.6818 656.318 25.8976 656.592 25.9988L659.465 27.0621C660.336 27.3843 660.336 28.6157 659.465 28.9379L656.592 30.0012C656.318 30.1024 656.102 30.3182 656.001 30.592L654.938 33.4655C654.616 34.3361 653.384 34.3361 653.062 33.4655L651.999 30.592C651.898 30.3182 651.682 30.1024 651.408 30.0012L648.535 28.9379C647.664 28.6157 647.664 27.3843 648.535 27.0621L651.408 25.9988C651.682 25.8976 651.898 25.6818 651.999 25.408L653.062 22.5345Z" fill="black"/>
<path d="M686.68 30.64H689.38C689.433 31.0933 689.64 31.5067 690 31.88C690.373 32.24 690.86 32.5267 691.46 32.74C692.06 32.94 692.733 33.04 693.48 33.04C694.16 33.04 694.72 32.9667 695.16 32.82C695.6 32.6733 695.927 32.4667 696.14 32.2C696.353 31.9333 696.46 31.6133 696.46 31.24C696.46 30.88 696.327 30.6067 696.06 30.42C695.793 30.22 695.373 30.06 694.8 29.94C694.227 29.8067 693.473 29.6733 692.54 29.54C691.807 29.4333 691.113 29.2867 690.46 29.1C689.807 28.9 689.227 28.6467 688.72 28.34C688.227 28.0333 687.833 27.66 687.54 27.22C687.26 26.7667 687.12 26.2333 687.12 25.62C687.12 24.86 687.333 24.1933 687.76 23.62C688.2 23.0467 688.847 22.6 689.7 22.28C690.553 21.96 691.6 21.8 692.84 21.8C694.707 21.8 696.14 22.2 697.14 23C698.153 23.7867 698.647 24.8733 698.62 26.26H696.02C695.967 25.4733 695.633 24.9067 695.02 24.56C694.42 24.2133 693.66 24.04 692.74 24.04C691.887 24.04 691.18 24.1667 690.62 24.42C690.073 24.6733 689.8 25.1067 689.8 25.72C689.8 25.96 689.867 26.1733 690 26.36C690.133 26.5333 690.36 26.6867 690.68 26.82C691 26.9533 691.433 27.08 691.98 27.2C692.527 27.32 693.207 27.44 694.02 27.56C694.78 27.6667 695.467 27.8133 696.08 28C696.707 28.1733 697.24 28.4067 697.68 28.7C698.133 28.98 698.48 29.34 698.72 29.78C698.96 30.22 699.08 30.76 699.08 31.4C699.08 32.1867 698.873 32.8733 698.46 33.46C698.06 34.0333 697.433 34.48 696.58 34.8C695.74 35.12 694.647 35.28 693.3 35.28C692.34 35.28 691.493 35.18 690.76 34.98C690.027 34.7667 689.393 34.4867 688.86 34.14C688.327 33.7933 687.893 33.4133 687.56 33C687.227 32.5867 686.987 32.1733 686.84 31.76C686.707 31.3467 686.653 30.9733 686.68 30.64ZM712.587 35H709.987V25.06H712.587V35ZM710.127 30.22L710.147 30.9C710.12 31.0867 710.053 31.36 709.947 31.72C709.84 32.0667 709.673 32.44 709.447 32.84C709.233 33.24 708.953 33.6267 708.607 34C708.26 34.36 707.833 34.66 707.327 34.9C706.82 35.1267 706.22 35.24 705.527 35.24C704.98 35.24 704.44 35.1733 703.907 35.04C703.387 34.9067 702.913 34.6867 702.487 34.38C702.06 34.06 701.72 33.6333 701.467 33.1C701.213 32.5667 701.087 31.8933 701.087 31.08V25.06H703.687V30.64C703.687 31.28 703.787 31.7867 703.987 32.16C704.2 32.52 704.507 32.7733 704.907 32.92C705.307 33.0667 705.78 33.14 706.327 33.14C707.047 33.14 707.667 32.9867 708.187 32.68C708.707 32.36 709.127 31.9733 709.447 31.52C709.78 31.0667 710.007 30.6333 710.127 30.22ZM714.954 25.06H717.554V35H714.954V25.06ZM721.374 27.2C720.627 27.2 719.981 27.3467 719.434 27.64C718.887 27.92 718.447 28.2667 718.114 28.68C717.781 29.0933 717.547 29.4933 717.414 29.88L717.394 28.78C717.407 28.62 717.461 28.3867 717.554 28.08C717.647 27.76 717.787 27.42 717.974 27.06C718.161 26.6867 718.407 26.3333 718.714 26C719.021 25.6533 719.394 25.3733 719.834 25.16C720.274 24.9467 720.787 24.84 721.374 24.84V27.2ZM722.34 25.24H730.34V27.22H722.34V25.24ZM728.42 21.06H730.48V23.16H729.04C728.653 23.1467 728.32 23.1867 728.04 23.28C727.76 23.3733 727.547 23.5467 727.4 23.8C727.253 24.04 727.18 24.3867 727.18 24.84V35H724.58V24.52C724.58 23.72 724.727 23.0667 725.02 22.56C725.313 22.04 725.747 21.66 726.32 21.42C726.893 21.18 727.593 21.06 728.42 21.06Z" fill="black"/>
<path d="M762.062 22.5345C762.384 21.6639 763.616 21.6639 763.938 22.5345L765.001 25.408C765.102 25.6818 765.318 25.8976 765.592 25.9988L768.465 27.0621C769.336 27.3843 769.336 28.6157 768.465 28.9379L765.592 30.0012C765.318 30.1024 765.102 30.3182 765.001 30.592L763.938 33.4655C763.616 34.3361 762.384 34.3361 762.062 33.4655L760.999 30.592C760.898 30.3182 760.682 30.1024 760.408 30.0012L757.535 28.9379C756.664 28.6157 756.664 27.3843 757.535 27.0621L760.408 25.9988C760.682 25.8976 760.898 25.6818 760.999 25.408L762.062 22.5345Z" fill="black"/>
<path d="M795.68 30.64H798.38C798.433 31.0933 798.64 31.5067 799 31.88C799.373 32.24 799.86 32.5267 800.46 32.74C801.06 32.94 801.733 33.04 802.48 33.04C803.16 33.04 803.72 32.9667 804.16 32.82C804.6 32.6733 804.927 32.4667 805.14 32.2C805.353 31.9333 805.46 31.6133 805.46 31.24C805.46 30.88 805.327 30.6067 805.06 30.42C804.793 30.22 804.373 30.06 803.8 29.94C803.227 29.8067 802.473 29.6733 801.54 29.54C800.807 29.4333 800.113 29.2867 799.46 29.1C798.807 28.9 798.227 28.6467 797.72 28.34C797.227 28.0333 796.833 27.66 796.54 27.22C796.26 26.7667 796.12 26.2333 796.12 25.62C796.12 24.86 796.333 24.1933 796.76 23.62C797.2 23.0467 797.847 22.6 798.7 22.28C799.553 21.96 800.6 21.8 801.84 21.8C803.707 21.8 805.14 22.2 806.14 23C807.153 23.7867 807.647 24.8733 807.62 26.26H805.02C804.967 25.4733 804.633 24.9067 804.02 24.56C803.42 24.2133 802.66 24.04 801.74 24.04C800.887 24.04 800.18 24.1667 799.62 24.42C799.073 24.6733 798.8 25.1067 798.8 25.72C798.8 25.96 798.867 26.1733 799 26.36C799.133 26.5333 799.36 26.6867 799.68 26.82C800 26.9533 800.433 27.08 800.98 27.2C801.527 27.32 802.207 27.44 803.02 27.56C803.78 27.6667 804.467 27.8133 805.08 28C805.707 28.1733 806.24 28.4067 806.68 28.7C807.133 28.98 807.48 29.34 807.72 29.78C807.96 30.22 808.08 30.76 808.08 31.4C808.08 32.1867 807.873 32.8733 807.46 33.46C807.06 34.0333 806.433 34.48 805.58 34.8C804.74 35.12 803.647 35.28 802.3 35.28C801.34 35.28 800.493 35.18 799.76 34.98C799.027 34.7667 798.393 34.4867 797.86 34.14C797.327 33.7933 796.893 33.4133 796.56 33C796.227 32.5867 795.987 32.1733 795.84 31.76C795.707 31.3467 795.653 30.9733 795.68 30.64ZM821.587 35H818.987V25.06H821.587V35ZM819.127 30.22L819.147 30.9C819.12 31.0867 819.053 31.36 818.947 31.72C818.84 32.0667 818.673 32.44 818.447 32.84C818.233 33.24 817.953 33.6267 817.607 34C817.26 34.36 816.833 34.66 816.327 34.9C815.82 35.1267 815.22 35.24 814.527 35.24C813.98 35.24 813.44 35.1733 812.907 35.04C812.387 34.9067 811.913 34.6867 811.487 34.38C811.06 34.06 810.72 33.6333 810.467 33.1C810.213 32.5667 810.087 31.8933 810.087 31.08V25.06H812.687V30.64C812.687 31.28 812.787 31.7867 812.987 32.16C813.2 32.52 813.507 32.7733 813.907 32.92C814.307 33.0667 814.78 33.14 815.327 33.14C816.047 33.14 816.667 32.9867 817.187 32.68C817.707 32.36 818.127 31.9733 818.447 31.52C818.78 31.0667 819.007 30.6333 819.127 30.22ZM823.954 25.06H826.554V35H823.954V25.06ZM830.374 27.2C829.627 27.2 828.981 27.3467 828.434 27.64C827.887 27.92 827.447 28.2667 827.114 28.68C826.781 29.0933 826.547 29.4933 826.414 29.88L826.394 28.78C826.407 28.62 826.461 28.3867 826.554 28.08C826.647 27.76 826.787 27.42 826.974 27.06C827.161 26.6867 827.407 26.3333 827.714 26C828.021 25.6533 828.394 25.3733 828.834 25.16C829.274 24.9467 829.787 24.84 830.374 24.84V27.2ZM831.34 25.24H839.34V27.22H831.34V25.24ZM837.42 21.06H839.48V23.16H838.04C837.653 23.1467 837.32 23.1867 837.04 23.28C836.76 23.3733 836.547 23.5467 836.4 23.8C836.253 24.04 836.18 24.3867 836.18 24.84V35H833.58V24.52C833.58 23.72 833.727 23.0667 834.02 22.56C834.313 22.04 834.747 21.66 835.32 21.42C835.893 21.18 836.593 21.06 837.42 21.06Z" fill="black"/>
<path d="M871.062 22.5345C871.384 21.6639 872.616 21.6639 872.938 22.5345L874.001 25.408C874.102 25.6818 874.318 25.8976 874.592 25.9988L877.465 27.0621C878.336 27.3843 878.336 28.6157 877.465 28.9379L874.592 30.0012C874.318 30.1024 874.102 30.3182 874.001 30.592L872.938 33.4655C872.616 34.3361 871.384 34.3361 871.062 33.4655L869.999 30.592C869.898 30.3182 869.682 30.1024 869.408 30.0012L866.535 28.9379C865.664 28.6157 865.664 27.3843 866.535 27.0621L869.408 25.9988C869.682 25.8976 869.898 25.6818 869.999 25.408L871.062 22.5345Z" fill="black"/>
<path d="M904.68 30.64H907.38C907.433 31.0933 907.64 31.5067 908 31.88C908.373 32.24 908.86 32.5267 909.46 32.74C910.06 32.94 910.733 33.04 911.48 33.04C912.16 33.04 912.72 32.9667 913.16 32.82C913.6 32.6733 913.927 32.4667 914.14 32.2C914.353 31.9333 914.46 31.6133 914.46 31.24C914.46 30.88 914.327 30.6067 914.06 30.42C913.793 30.22 913.373 30.06 912.8 29.94C912.227 29.8067 911.473 29.6733 910.54 29.54C909.807 29.4333 909.113 29.2867 908.46 29.1C907.807 28.9 907.227 28.6467 906.72 28.34C906.227 28.0333 905.833 27.66 905.54 27.22C905.26 26.7667 905.12 26.2333 905.12 25.62C905.12 24.86 905.333 24.1933 905.76 23.62C906.2 23.0467 906.847 22.6 907.7 22.28C908.553 21.96 909.6 21.8 910.84 21.8C912.707 21.8 914.14 22.2 915.14 23C916.153 23.7867 916.647 24.8733 916.62 26.26H914.02C913.967 25.4733 913.633 24.9067 913.02 24.56C912.42 24.2133 911.66 24.04 910.74 24.04C909.887 24.04 909.18 24.1667 908.62 24.42C908.073 24.6733 907.8 25.1067 907.8 25.72C907.8 25.96 907.867 26.1733 908 26.36C908.133 26.5333 908.36 26.6867 908.68 26.82C909 26.9533 909.433 27.08 909.98 27.2C910.527 27.32 911.207 27.44 912.02 27.56C912.78 27.6667 913.467 27.8133 914.08 28C914.707 28.1733 915.24 28.4067 915.68 28.7C916.133 28.98 916.48 29.34 916.72 29.78C916.96 30.22 917.08 30.76 917.08 31.4C917.08 32.1867 916.873 32.8733 916.46 33.46C916.06 34.0333 915.433 34.48 914.58 34.8C913.74 35.12 912.647 35.28 911.3 35.28C910.34 35.28 909.493 35.18 908.76 34.98C908.027 34.7667 907.393 34.4867 906.86 34.14C906.327 33.7933 905.893 33.4133 905.56 33C905.227 32.5867 904.987 32.1733 904.84 31.76C904.707 31.3467 904.653 30.9733 904.68 30.64ZM930.587 35H927.987V25.06H930.587V35ZM928.127 30.22L928.147 30.9C928.12 31.0867 928.053 31.36 927.947 31.72C927.84 32.0667 927.673 32.44 927.447 32.84C927.233 33.24 926.953 33.6267 926.607 34C926.26 34.36 925.833 34.66 925.327 34.9C924.82 35.1267 924.22 35.24 923.527 35.24C922.98 35.24 922.44 35.1733 921.907 35.04C921.387 34.9067 920.913 34.6867 920.487 34.38C920.06 34.06 919.72 33.6333 919.467 33.1C919.213 32.5667 919.087 31.8933 919.087 31.08V25.06H921.687V30.64C921.687 31.28 921.787 31.7867 921.987 32.16C922.2 32.52 922.507 32.7733 922.907 32.92C923.307 33.0667 923.78 33.14 924.327 33.14C925.047 33.14 925.667 32.9867 926.187 32.68C926.707 32.36 927.127 31.9733 927.447 31.52C927.78 31.0667 928.007 30.6333 928.127 30.22ZM932.954 25.06H935.554V35H932.954V25.06ZM939.374 27.2C938.627 27.2 937.981 27.3467 937.434 27.64C936.887 27.92 936.447 28.2667 936.114 28.68C935.781 29.0933 935.547 29.4933 935.414 29.88L935.394 28.78C935.407 28.62 935.461 28.3867 935.554 28.08C935.647 27.76 935.787 27.42 935.974 27.06C936.161 26.6867 936.407 26.3333 936.714 26C937.021 25.6533 937.394 25.3733 937.834 25.16C938.274 24.9467 938.787 24.84 939.374 24.84V27.2ZM940.34 25.24H948.34V27.22H940.34V25.24ZM946.42 21.06H948.48V23.16H947.04C946.653 23.1467 946.32 23.1867 946.04 23.28C945.76 23.3733 945.547 23.5467 945.4 23.8C945.253 24.04 945.18 24.3867 945.18 24.84V35H942.58V24.52C942.58 23.72 942.727 23.0667 943.02 22.56C943.313 22.04 943.747 21.66 944.32 21.42C944.893 21.18 945.593 21.06 946.42 21.06Z" fill="black"/>
<path d="M980.062 22.5345C980.384 21.6639 981.616 21.6639 981.938 22.5345L983.001 25.408C983.102 25.6818 983.318 25.8976 983.592 25.9988L986.465 27.0621C987.336 27.3843 987.336 28.6157 986.465 28.9379L983.592 30.0012C983.318 30.1024 983.102 30.3182 983.001 30.592L981.938 33.4655C981.616 34.3361 980.384 34.3361 980.062 33.4655L978.999 30.592C978.898 30.3182 978.682 30.1024 978.408 30.0012L975.535 28.9379C974.664 28.6157 974.664 27.3843 975.535 27.0621L978.408 25.9988C978.682 25.8976 978.898 25.6818 978.999 25.408L980.062 22.5345Z" fill="black"/>
<path d="M1013.68 30.64H1016.38C1016.43 31.0933 1016.64 31.5067 1017 31.88C1017.37 32.24 1017.86 32.5267 1018.46 32.74C1019.06 32.94 1019.73 33.04 1020.48 33.04C1021.16 33.04 1021.72 32.9667 1022.16 32.82C1022.6 32.6733 1022.93 32.4667 1023.14 32.2C1023.35 31.9333 1023.46 31.6133 1023.46 31.24C1023.46 30.88 1023.33 30.6067 1023.06 30.42C1022.79 30.22 1022.37 30.06 1021.8 29.94C1021.23 29.8067 1020.47 29.6733 1019.54 29.54C1018.81 29.4333 1018.11 29.2867 1017.46 29.1C1016.81 28.9 1016.23 28.6467 1015.72 28.34C1015.23 28.0333 1014.83 27.66 1014.54 27.22C1014.26 26.7667 1014.12 26.2333 1014.12 25.62C1014.12 24.86 1014.33 24.1933 1014.76 23.62C1015.2 23.0467 1015.85 22.6 1016.7 22.28C1017.55 21.96 1018.6 21.8 1019.84 21.8C1021.71 21.8 1023.14 22.2 1024.14 23C1025.15 23.7867 1025.65 24.8733 1025.62 26.26H1023.02C1022.97 25.4733 1022.63 24.9067 1022.02 24.56C1021.42 24.2133 1020.66 24.04 1019.74 24.04C1018.89 24.04 1018.18 24.1667 1017.62 24.42C1017.07 24.6733 1016.8 25.1067 1016.8 25.72C1016.8 25.96 1016.87 26.1733 1017 26.36C1017.13 26.5333 1017.36 26.6867 1017.68 26.82C1018 26.9533 1018.43 27.08 1018.98 27.2C1019.53 27.32 1020.21 27.44 1021.02 27.56C1021.78 27.6667 1022.47 27.8133 1023.08 28C1023.71 28.1733 1024.24 28.4067 1024.68 28.7C1025.13 28.98 1025.48 29.34 1025.72 29.78C1025.96 30.22 1026.08 30.76 1026.08 31.4C1026.08 32.1867 1025.87 32.8733 1025.46 33.46C1025.06 34.0333 1024.43 34.48 1023.58 34.8C1022.74 35.12 1021.65 35.28 1020.3 35.28C1019.34 35.28 1018.49 35.18 1017.76 34.98C1017.03 34.7667 1016.39 34.4867 1015.86 34.14C1015.33 33.7933 1014.89 33.4133 1014.56 33C1014.23 32.5867 1013.99 32.1733 1013.84 31.76C1013.71 31.3467 1013.65 30.9733 1013.68 30.64ZM1039.59 35H1036.99V25.06H1039.59V35ZM1037.13 30.22L1037.15 30.9C1037.12 31.0867 1037.05 31.36 1036.95 31.72C1036.84 32.0667 1036.67 32.44 1036.45 32.84C1036.23 33.24 1035.95 33.6267 1035.61 34C1035.26 34.36 1034.83 34.66 1034.33 34.9C1033.82 35.1267 1033.22 35.24 1032.53 35.24C1031.98 35.24 1031.44 35.1733 1030.91 35.04C1030.39 34.9067 1029.91 34.6867 1029.49 34.38C1029.06 34.06 1028.72 33.6333 1028.47 33.1C1028.21 32.5667 1028.09 31.8933 1028.09 31.08V25.06H1030.69V30.64C1030.69 31.28 1030.79 31.7867 1030.99 32.16C1031.2 32.52 1031.51 32.7733 1031.91 32.92C1032.31 33.0667 1032.78 33.14 1033.33 33.14C1034.05 33.14 1034.67 32.9867 1035.19 32.68C1035.71 32.36 1036.13 31.9733 1036.45 31.52C1036.78 31.0667 1037.01 30.6333 1037.13 30.22ZM1041.95 25.06H1044.55V35H1041.95V25.06ZM1048.37 27.2C1047.63 27.2 1046.98 27.3467 1046.43 27.64C1045.89 27.92 1045.45 28.2667 1045.11 28.68C1044.78 29.0933 1044.55 29.4933 1044.41 29.88L1044.39 28.78C1044.41 28.62 1044.46 28.3867 1044.55 28.08C1044.65 27.76 1044.79 27.42 1044.97 27.06C1045.16 26.6867 1045.41 26.3333 1045.71 26C1046.02 25.6533 1046.39 25.3733 1046.83 25.16C1047.27 24.9467 1047.79 24.84 1048.37 24.84V27.2ZM1049.34 25.24H1057.34V27.22H1049.34V25.24ZM1055.42 21.06H1057.48V23.16H1056.04C1055.65 23.1467 1055.32 23.1867 1055.04 23.28C1054.76 23.3733 1054.55 23.5467 1054.4 23.8C1054.25 24.04 1054.18 24.3867 1054.18 24.84V35H1051.58V24.52C1051.58 23.72 1051.73 23.0667 1052.02 22.56C1052.31 22.04 1052.75 21.66 1053.32 21.42C1053.89 21.18 1054.59 21.06 1055.42 21.06Z" fill="black"/>
<path d="M1089.06 22.5345C1089.38 21.6639 1090.62 21.6639 1090.94 22.5345L1092 25.408C1092.1 25.6818 1092.32 25.8976 1092.59 25.9988L1095.47 27.0621C1096.34 27.3843 1096.34 28.6157 1095.47 28.9379L1092.59 30.0012C1092.32 30.1024 1092.1 30.3182 1092 30.592L1090.94 33.4655C1090.62 34.3361 1089.38 34.3361 1089.06 33.4655L1088 30.592C1087.9 30.3182 1087.68 30.1024 1087.41 30.0012L1084.53 28.9379C1083.66 28.6157 1083.66 27.3843 1084.53 27.0621L1087.41 25.9988C1087.68 25.8976 1087.9 25.6818 1088 25.408L1089.06 22.5345Z" fill="black"/>
<path d="M1122.68 30.64H1125.38C1125.43 31.0933 1125.64 31.5067 1126 31.88C1126.37 32.24 1126.86 32.5267 1127.46 32.74C1128.06 32.94 1128.73 33.04 1129.48 33.04C1130.16 33.04 1130.72 32.9667 1131.16 32.82C1131.6 32.6733 1131.93 32.4667 1132.14 32.2C1132.35 31.9333 1132.46 31.6133 1132.46 31.24C1132.46 30.88 1132.33 30.6067 1132.06 30.42C1131.79 30.22 1131.37 30.06 1130.8 29.94C1130.23 29.8067 1129.47 29.6733 1128.54 29.54C1127.81 29.4333 1127.11 29.2867 1126.46 29.1C1125.81 28.9 1125.23 28.6467 1124.72 28.34C1124.23 28.0333 1123.83 27.66 1123.54 27.22C1123.26 26.7667 1123.12 26.2333 1123.12 25.62C1123.12 24.86 1123.33 24.1933 1123.76 23.62C1124.2 23.0467 1124.85 22.6 1125.7 22.28C1126.55 21.96 1127.6 21.8 1128.84 21.8C1130.71 21.8 1132.14 22.2 1133.14 23C1134.15 23.7867 1134.65 24.8733 1134.62 26.26H1132.02C1131.97 25.4733 1131.63 24.9067 1131.02 24.56C1130.42 24.2133 1129.66 24.04 1128.74 24.04C1127.89 24.04 1127.18 24.1667 1126.62 24.42C1126.07 24.6733 1125.8 25.1067 1125.8 25.72C1125.8 25.96 1125.87 26.1733 1126 26.36C1126.13 26.5333 1126.36 26.6867 1126.68 26.82C1127 26.9533 1127.43 27.08 1127.98 27.2C1128.53 27.32 1129.21 27.44 1130.02 27.56C1130.78 27.6667 1131.47 27.8133 1132.08 28C1132.71 28.1733 1133.24 28.4067 1133.68 28.7C1134.13 28.98 1134.48 29.34 1134.72 29.78C1134.96 30.22 1135.08 30.76 1135.08 31.4C1135.08 32.1867 1134.87 32.8733 1134.46 33.46C1134.06 34.0333 1133.43 34.48 1132.58 34.8C1131.74 35.12 1130.65 35.28 1129.3 35.28C1128.34 35.28 1127.49 35.18 1126.76 34.98C1126.03 34.7667 1125.39 34.4867 1124.86 34.14C1124.33 33.7933 1123.89 33.4133 1123.56 33C1123.23 32.5867 1122.99 32.1733 1122.84 31.76C1122.71 31.3467 1122.65 30.9733 1122.68 30.64ZM1148.59 35H1145.99V25.06H1148.59V35ZM1146.13 30.22L1146.15 30.9C1146.12 31.0867 1146.05 31.36 1145.95 31.72C1145.84 32.0667 1145.67 32.44 1145.45 32.84C1145.23 33.24 1144.95 33.6267 1144.61 34C1144.26 34.36 1143.83 34.66 1143.33 34.9C1142.82 35.1267 1142.22 35.24 1141.53 35.24C1140.98 35.24 1140.44 35.1733 1139.91 35.04C1139.39 34.9067 1138.91 34.6867 1138.49 34.38C1138.06 34.06 1137.72 33.6333 1137.47 33.1C1137.21 32.5667 1137.09 31.8933 1137.09 31.08V25.06H1139.69V30.64C1139.69 31.28 1139.79 31.7867 1139.99 32.16C1140.2 32.52 1140.51 32.7733 1140.91 32.92C1141.31 33.0667 1141.78 33.14 1142.33 33.14C1143.05 33.14 1143.67 32.9867 1144.19 32.68C1144.71 32.36 1145.13 31.9733 1145.45 31.52C1145.78 31.0667 1146.01 30.6333 1146.13 30.22ZM1150.95 25.06H1153.55V35H1150.95V25.06ZM1157.37 27.2C1156.63 27.2 1155.98 27.3467 1155.43 27.64C1154.89 27.92 1154.45 28.2667 1154.11 28.68C1153.78 29.0933 1153.55 29.4933 1153.41 29.88L1153.39 28.78C1153.41 28.62 1153.46 28.3867 1153.55 28.08C1153.65 27.76 1153.79 27.42 1153.97 27.06C1154.16 26.6867 1154.41 26.3333 1154.71 26C1155.02 25.6533 1155.39 25.3733 1155.83 25.16C1156.27 24.9467 1156.79 24.84 1157.37 24.84V27.2ZM1158.34 25.24H1166.34V27.22H1158.34V25.24ZM1164.42 21.06H1166.48V23.16H1165.04C1164.65 23.1467 1164.32 23.1867 1164.04 23.28C1163.76 23.3733 1163.55 23.5467 1163.4 23.8C1163.25 24.04 1163.18 24.3867 1163.18 24.84V35H1160.58V24.52C1160.58 23.72 1160.73 23.0667 1161.02 22.56C1161.31 22.04 1161.75 21.66 1162.32 21.42C1162.89 21.18 1163.59 21.06 1164.42 21.06Z" fill="black"/>
<path d="M1198.06 22.5345C1198.38 21.6639 1199.62 21.6639 1199.94 22.5345L1201 25.408C1201.1 25.6818 1201.32 25.8976 1201.59 25.9988L1204.47 27.0621C1205.34 27.3843 1205.34 28.6157 1204.47 28.9379L1201.59 30.0012C1201.32 30.1024 1201.1 30.3182 1201 30.592L1199.94 33.4655C1199.62 34.3361 1198.38 34.3361 1198.06 33.4655L1197 30.592C1196.9 30.3182 1196.68 30.1024 1196.41 30.0012L1193.53 28.9379C1192.66 28.6157 1192.66 27.3843 1193.53 27.0621L1196.41 25.9988C1196.68 25.8976 1196.9 25.6818 1197 25.408L1198.06 22.5345Z" fill="black"/>
<path d="M1231.68 30.64H1234.38C1234.43 31.0933 1234.64 31.5067 1235 31.88C1235.37 32.24 1235.86 32.5267 1236.46 32.74C1237.06 32.94 1237.73 33.04 1238.48 33.04C1239.16 33.04 1239.72 32.9667 1240.16 32.82C1240.6 32.6733 1240.93 32.4667 1241.14 32.2C1241.35 31.9333 1241.46 31.6133 1241.46 31.24C1241.46 30.88 1241.33 30.6067 1241.06 30.42C1240.79 30.22 1240.37 30.06 1239.8 29.94C1239.23 29.8067 1238.47 29.6733 1237.54 29.54C1236.81 29.4333 1236.11 29.2867 1235.46 29.1C1234.81 28.9 1234.23 28.6467 1233.72 28.34C1233.23 28.0333 1232.83 27.66 1232.54 27.22C1232.26 26.7667 1232.12 26.2333 1232.12 25.62C1232.12 24.86 1232.33 24.1933 1232.76 23.62C1233.2 23.0467 1233.85 22.6 1234.7 22.28C1235.55 21.96 1236.6 21.8 1237.84 21.8C1239.71 21.8 1241.14 22.2 1242.14 23C1243.15 23.7867 1243.65 24.8733 1243.62 26.26H1241.02C1240.97 25.4733 1240.63 24.9067 1240.02 24.56C1239.42 24.2133 1238.66 24.04 1237.74 24.04C1236.89 24.04 1236.18 24.1667 1235.62 24.42C1235.07 24.6733 1234.8 25.1067 1234.8 25.72C1234.8 25.96 1234.87 26.1733 1235 26.36C1235.13 26.5333 1235.36 26.6867 1235.68 26.82C1236 26.9533 1236.43 27.08 1236.98 27.2C1237.53 27.32 1238.21 27.44 1239.02 27.56C1239.78 27.6667 1240.47 27.8133 1241.08 28C1241.71 28.1733 1242.24 28.4067 1242.68 28.7C1243.13 28.98 1243.48 29.34 1243.72 29.78C1243.96 30.22 1244.08 30.76 1244.08 31.4C1244.08 32.1867 1243.87 32.8733 1243.46 33.46C1243.06 34.0333 1242.43 34.48 1241.58 34.8C1240.74 35.12 1239.65 35.28 1238.3 35.28C1237.34 35.28 1236.49 35.18 1235.76 34.98C1235.03 34.7667 1234.39 34.4867 1233.86 34.14C1233.33 33.7933 1232.89 33.4133 1232.56 33C1232.23 32.5867 1231.99 32.1733 1231.84 31.76C1231.71 31.3467 1231.65 30.9733 1231.68 30.64ZM1257.59 35H1254.99V25.06H1257.59V35ZM1255.13 30.22L1255.15 30.9C1255.12 31.0867 1255.05 31.36 1254.95 31.72C1254.84 32.0667 1254.67 32.44 1254.45 32.84C1254.23 33.24 1253.95 33.6267 1253.61 34C1253.26 34.36 1252.83 34.66 1252.33 34.9C1251.82 35.1267 1251.22 35.24 1250.53 35.24C1249.98 35.24 1249.44 35.1733 1248.91 35.04C1248.39 34.9067 1247.91 34.6867 1247.49 34.38C1247.06 34.06 1246.72 33.6333 1246.47 33.1C1246.21 32.5667 1246.09 31.8933 1246.09 31.08V25.06H1248.69V30.64C1248.69 31.28 1248.79 31.7867 1248.99 32.16C1249.2 32.52 1249.51 32.7733 1249.91 32.92C1250.31 33.0667 1250.78 33.14 1251.33 33.14C1252.05 33.14 1252.67 32.9867 1253.19 32.68C1253.71 32.36 1254.13 31.9733 1254.45 31.52C1254.78 31.0667 1255.01 30.6333 1255.13 30.22ZM1259.95 25.06H1262.55V35H1259.95V25.06ZM1266.37 27.2C1265.63 27.2 1264.98 27.3467 1264.43 27.64C1263.89 27.92 1263.45 28.2667 1263.11 28.68C1262.78 29.0933 1262.55 29.4933 1262.41 29.88L1262.39 28.78C1262.41 28.62 1262.46 28.3867 1262.55 28.08C1262.65 27.76 1262.79 27.42 1262.97 27.06C1263.16 26.6867 1263.41 26.3333 1263.71 26C1264.02 25.6533 1264.39 25.3733 1264.83 25.16C1265.27 24.9467 1265.79 24.84 1266.37 24.84V27.2ZM1267.34 25.24H1275.34V27.22H1267.34V25.24ZM1273.42 21.06H1275.48V23.16H1274.04C1273.65 23.1467 1273.32 23.1867 1273.04 23.28C1272.76 23.3733 1272.55 23.5467 1272.4 23.8C1272.25 24.04 1272.18 24.3867 1272.18 24.84V35H1269.58V24.52C1269.58 23.72 1269.73 23.0667 1270.02 22.56C1270.31 22.04 1270.75 21.66 1271.32 21.42C1271.89 21.18 1272.59 21.06 1273.42 21.06Z" fill="black"/>
</g>
<defs>
<linearGradient id="paint0_linear_3185_638" x1="0" y1="28" x2="2239" y2="28" gradientUnits="userSpaceOnUse">
<stop stop-color="#F472B6"/>
<stop offset="1" stop-color="#67E8F9"/>
</linearGradient>
<clipPath id="clip0_3185_638">
<rect width="1280" height="56" fill="white"/>
</clipPath>
</defs>
</svg>
